<svg xmlns="http://www.w3.org/2000/svg" xmlns:xlink="http://www.w3.org/1999/xlink" width="1080" zoomAndPan="magnify" viewBox="0 0 810 809.999993" height="1080" preserveAspectRatio="xMidYMid meet" version="1.0"><defs><filter x="0%" y="0%" width="100%" height="100%" id="f8d3f55a35"><feColorMatrix values="0 0 0 0 1 0 0 0 0 1 0 0 0 0 1 0 0 0 1 0" color-interpolation-filters="sRGB"/></filter><g/><clipPath id="621fbba4c4"><path d="M 0.953125 130.414062 L 457.882812 130.414062 L 457.882812 673.691406 L 0.953125 673.691406 Z M 0.953125 130.414062 " clip-rule="nonzero"/></clipPath><clipPath id="6c78cad618"><path d="M 404 0 L 776.761719 0 L 776.761719 810 L 404 810 Z M 404 0 " clip-rule="nonzero"/></clipPath><mask id="2b64443504"><g filter="url(#f8d3f55a35)"><rect x="-205.2" width="1166.4" fill="#000000" y="-178.199998" height="1166.39999" fill-opacity="0.9"/></g></mask><clipPath id="d58dfa2665"><path d="M 0.0390625 0 L 372.761719 0 L 372.761719 810 L 0.0390625 810 Z M 0.0390625 0 " clip-rule="nonzero"/></clipPath><clipPath id="96706690f3"><rect x="0" width="373" y="0" height="810"/></clipPath><clipPath id="05034cc404"><rect x="0" width="373" y="0" height="810"/></clipPath><clipPath id="ead71f5533"><rect x="0" width="777" y="0" height="810"/></clipPath></defs><g transform="matrix(1, 0, 0, 1, 27, 0.000000000000039746)"><g clip-path="url(#ead71f5533)"><g clip-path="url(#621fbba4c4)"><path fill="#7c4dff" d="M 318.914062 130.578125 L 318.914062 382.613281 L 167.367188 130.445312 L 0.96875 130.445312 L 327.203125 674.253906 L 458.390625 674.253906 L 458.390625 130.578125 Z M 0.96875 674.253906 L 140.449219 674.253906 L 140.449219 427.972656 L 0.96875 428.023438 Z M 0.96875 674.253906 " fill-opacity="1" fill-rule="nonzero"/></g><g clip-path="url(#6c78cad618)"><g mask="url(#2b64443504)"><g transform="matrix(1, 0, 0, 1, 404, 0.000000000000039746)"><g clip-path="url(#05034cc404)"><g clip-path="url(#d58dfa2665)"><g transform="matrix(1, 0, 0, 1, 0, 0.000000000000039746)"><g clip-path="url(#96706690f3)"><g fill="#7c4dff" fill-opacity="1"><g transform="translate(0.166691, 675.125449)"><g><path d="M 343.75 -543.484375 L 343.75 -514.0625 L 98.328125 -514.0625 L 98.328125 -287.234375 L 312.78125 -287.234375 L 312.78125 -257.8125 L 98.328125 -257.8125 L 98.328125 0 L 63.484375 0 L 63.484375 -543.484375 Z M 343.75 -543.484375 "/></g></g></g></g></g></g></g></g></g></g></g></g></svg>