<svg xmlns="http://www.w3.org/2000/svg" xmlns:xlink="http://www.w3.org/1999/xlink" width="500" zoomAndPan="magnify" viewBox="0 0 375 374.999991" height="500" preserveAspectRatio="xMidYMid meet" version="1.0"><defs><clipPath id="76808b4249"><path d="M 11.800781 11.507812 L 363.199219 11.507812 L 363.199219 364 L 11.800781 364 Z M 11.800781 11.507812 " clip-rule="nonzero"/></clipPath><clipPath id="d82f4d23f3"><path d="M 41.800781 11.507812 L 333.199219 11.507812 C 349.769531 11.507812 363.199219 24.9375 363.199219 41.507812 L 363.199219 333.492188 C 363.199219 350.0625 349.769531 363.492188 333.199219 363.492188 L 41.800781 363.492188 C 25.230469 363.492188 11.800781 350.0625 11.800781 333.492188 L 11.800781 41.507812 C 11.800781 24.9375 25.230469 11.507812 41.800781 11.507812 Z M 41.800781 11.507812 " clip-rule="nonzero"/></clipPath><clipPath id="a27304a0c5"><path d="M 0.800781 0.507812 L 352.199219 0.507812 L 352.199219 352 L 0.800781 352 Z M 0.800781 0.507812 " clip-rule="nonzero"/></clipPath><clipPath id="37b1ac17e8"><path d="M 30.800781 0.507812 L 322.199219 0.507812 C 338.769531 0.507812 352.199219 13.9375 352.199219 30.507812 L 352.199219 322.492188 C 352.199219 339.0625 338.769531 352.492188 322.199219 352.492188 L 30.800781 352.492188 C 14.230469 352.492188 0.800781 339.0625 0.800781 322.492188 L 0.800781 30.507812 C 0.800781 13.9375 14.230469 0.507812 30.800781 0.507812 Z M 30.800781 0.507812 " clip-rule="nonzero"/></clipPath><clipPath id="7dcbc16a0f"><rect x="0" width="353" y="0" height="353"/></clipPath></defs><g clip-path="url(#76808b4249)"><g clip-path="url(#d82f4d23f3)"><g transform="matrix(1, 0, 0, 1, 11, 11)"><g clip-path="url(#7dcbc16a0f)"><g clip-path="url(#a27304a0c5)"><g clip-path="url(#37b1ac17e8)"><path fill="#ffffff" d="M 0.800781 0.507812 L 352.199219 0.507812 L 352.199219 351.910156 L 0.800781 351.910156 Z M 0.800781 0.507812 " fill-opacity="1" fill-rule="nonzero"/></g></g></g></g></g></g><path fill="#7c4dff" d="M 251.144531 259.183594 C 251.425781 259 251.71875 258.84375 252.027344 258.722656 C 252.335938 258.597656 252.65625 258.507812 252.984375 258.449219 C 253.3125 258.390625 253.644531 258.367188 253.976562 258.378906 C 254.308594 258.386719 254.636719 258.429688 254.960938 258.507812 C 255.285156 258.585938 255.597656 258.695312 255.902344 258.835938 C 256.203125 258.980469 256.488281 259.148438 256.753906 259.347656 C 257.019531 259.550781 257.265625 259.773438 257.484375 260.023438 C 257.707031 260.273438 257.898438 260.542969 258.0625 260.832031 C 259.375 263.320312 260.453125 265.554688 259.699219 266.417969 C 257.828125 268.441406 255.738281 270.203125 253.425781 271.699219 C 251.113281 273.195312 248.648438 274.378906 246.035156 275.253906 C 244.980469 275.609375 243.105469 273.886719 241.035156 271.882812 C 240.804688 271.667969 240.605469 271.429688 240.429688 271.167969 C 240.257812 270.90625 240.117188 270.625 240.007812 270.332031 C 239.898438 270.039062 239.824219 269.734375 239.785156 269.421875 C 239.742188 269.113281 239.742188 268.800781 239.773438 268.488281 C 239.804688 268.175781 239.871094 267.871094 239.972656 267.574219 C 240.078125 267.277344 240.210938 266.996094 240.378906 266.730469 C 240.546875 266.464844 240.738281 266.21875 240.964844 266 C 241.1875 265.777344 241.429688 265.585938 241.699219 265.421875 Z M 131.601562 110.734375 C 131.882812 110.558594 132.140625 110.347656 132.371094 110.109375 C 132.601562 109.871094 132.800781 109.609375 132.96875 109.324219 C 133.136719 109.035156 133.269531 108.734375 133.363281 108.417969 C 133.457031 108.097656 133.511719 107.773438 133.527344 107.441406 C 133.542969 107.109375 133.519531 106.78125 133.457031 106.457031 C 133.390625 106.128906 133.292969 105.816406 133.152344 105.515625 C 133.011719 105.214844 132.839844 104.933594 132.632812 104.671875 C 132.425781 104.414062 132.191406 104.183594 131.925781 103.980469 C 129.878906 102.324219 128.050781 101 127.019531 101.394531 C 121.875 103.46875 117.457031 106.578125 113.773438 110.71875 C 113.179688 111.367188 114.21875 113.277344 115.496094 115.414062 C 115.667969 115.6875 115.867188 115.941406 116.09375 116.171875 C 116.320312 116.40625 116.5625 116.613281 116.832031 116.796875 C 117.097656 116.980469 117.378906 117.136719 117.675781 117.265625 C 117.972656 117.394531 118.28125 117.492188 118.597656 117.558594 C 118.914062 117.625 119.234375 117.660156 119.554688 117.664062 C 119.878906 117.667969 120.199219 117.640625 120.519531 117.582031 C 120.835938 117.523438 121.144531 117.429688 121.445312 117.308594 C 121.746094 117.1875 122.03125 117.039062 122.300781 116.863281 Z M 144.957031 134.449219 C 151.71875 129.988281 158.476562 125.523438 165.238281 121.054688 C 176.632812 113.539062 176.632812 113.539062 168.417969 103.226562 C 163.621094 97.195312 160.636719 96.691406 154.132812 100.964844 C 140.929688 109.636719 127.925781 118.570312 114.550781 127 C 98.554688 137.082031 101.273438 137.800781 111.171875 150.691406 C 113.59375 153.847656 115.695312 153.945312 118.988281 151.660156 C 127.523438 145.785156 136.28125 140.167969 144.949219 134.449219 Z M 221.996094 273.984375 C 235.0625 265.414062 247.941406 256.597656 261.15625 248.230469 C 276.773438 238.335938 274.632812 237.566406 264.34375 224.429688 C 264.175781 224.109375 263.972656 223.816406 263.730469 223.542969 C 263.492188 223.273438 263.222656 223.03125 262.925781 222.824219 C 262.628906 222.617188 262.3125 222.449219 261.976562 222.316406 C 261.640625 222.183594 261.289062 222.09375 260.933594 222.046875 C 260.574219 221.996094 260.214844 221.992188 259.855469 222.027344 C 259.492188 222.066406 259.144531 222.144531 258.800781 222.265625 C 258.460938 222.386719 258.136719 222.542969 257.835938 222.742188 C 257.53125 222.9375 257.253906 223.167969 257.007812 223.433594 C 248.097656 229.570312 238.976562 235.425781 229.933594 241.394531 L 210.113281 254.476562 C 199.109375 261.746094 199.109375 261.746094 207.167969 271.921875 C 212.128906 278.210938 214.90625 278.640625 221.996094 273.984375 Z M 162.941406 159.976562 C 173.710938 152.867188 184.472656 145.757812 195.230469 138.652344 C 208.6875 129.765625 208.6875 129.765625 198.949219 117.296875 C 193.386719 110.171875 191.195312 109.8125 183.371094 114.96875 C 160.972656 129.734375 138.578125 144.515625 116.1875 159.3125 C 101.617188 168.945312 101.601562 169.132812 112.59375 182.496094 C 117.070312 187.9375 119.839844 188.375 125.960938 184.363281 C 138.3125 176.269531 150.640625 168.140625 162.941406 159.976562 Z M 227.671875 237.328125 C 238.441406 230.222656 249.203125 223.113281 259.953125 216.003906 C 273.117188 207.304688 273.117188 207.300781 263.59375 195.089844 C 257.703125 187.542969 256.035156 187.296875 247.613281 192.851562 C 225.214844 207.628906 202.828125 222.417969 180.460938 237.210938 C 166.324219 246.550781 166.324219 246.546875 176.527344 259.410156 C 181.507812 265.6875 183.976562 266.132812 190.703125 261.71875 C 203.050781 253.621094 215.375 245.488281 227.671875 237.328125 Z M 212.085938 209.363281 C 212.378906 209.183594 212.648438 208.972656 212.894531 208.734375 C 213.144531 208.5 213.367188 208.238281 213.558594 207.953125 C 213.753906 207.667969 213.914062 207.367188 214.046875 207.050781 C 214.175781 206.734375 214.269531 206.40625 214.332031 206.066406 C 214.390625 205.726562 214.417969 205.386719 214.40625 205.042969 C 214.394531 204.699219 214.347656 204.363281 214.265625 204.027344 C 214.183594 203.695312 214.070312 203.371094 213.917969 203.0625 C 213.769531 202.753906 213.589844 202.464844 213.375 202.191406 L 181.328125 160.835938 C 181.097656 160.558594 180.847656 160.304688 180.574219 160.074219 C 180.300781 159.84375 180.007812 159.636719 179.695312 159.460938 C 179.382812 159.28125 179.058594 159.132812 178.71875 159.015625 C 178.378906 158.898438 178.03125 158.8125 177.675781 158.757812 C 177.324219 158.703125 176.964844 158.679688 176.605469 158.691406 C 176.25 158.703125 175.894531 158.746094 175.542969 158.824219 C 175.191406 158.898438 174.851562 159.007812 174.519531 159.144531 C 174.1875 159.285156 173.871094 159.453125 173.574219 159.648438 L 165.882812 164.722656 C 165.589844 164.90625 165.320312 165.113281 165.070312 165.351562 C 164.820312 165.589844 164.601562 165.847656 164.40625 166.132812 C 164.214844 166.417969 164.050781 166.71875 163.921875 167.035156 C 163.792969 167.355469 163.695312 167.683594 163.632812 168.019531 C 163.574219 168.359375 163.546875 168.699219 163.558594 169.042969 C 163.570312 169.386719 163.617188 169.726562 163.699219 170.058594 C 163.78125 170.394531 163.898438 170.714844 164.046875 171.023438 C 164.199219 171.332031 164.378906 171.621094 164.589844 171.894531 L 196.640625 213.25 C 196.867188 213.527344 197.121094 213.78125 197.394531 214.011719 C 197.667969 214.246094 197.960938 214.449219 198.273438 214.628906 C 198.585938 214.804688 198.910156 214.953125 199.25 215.070312 C 199.589844 215.1875 199.933594 215.277344 200.289062 215.328125 C 200.644531 215.382812 201 215.40625 201.359375 215.394531 C 201.71875 215.382812 202.074219 215.339844 202.425781 215.265625 C 202.777344 215.1875 203.117188 215.082031 203.449219 214.941406 C 203.777344 214.800781 204.09375 214.632812 204.394531 214.4375 Z M 212.085938 209.363281 " fill-opacity="1" fill-rule="nonzero"/></svg>